<?xml version="1.0" encoding="utf-8"?>
<!-- Generator: Adobe Illustrator 25.0.0, SVG Export Plug-In . SVG Version: 6.00 Build 0)  -->
<svg version="1.1" id="katman_1" xmlns="http://www.w3.org/2000/svg" xmlns:xlink="http://www.w3.org/1999/xlink" x="0px" y="0px"
	 viewBox="0 0 1800 1344" style="enable-background:new 0 0 1800 1344;" xml:space="preserve">
<style type="text/css">
	.st0{fill-rule:evenodd;clip-rule:evenodd;fill:#E3ECF5;}
	.st1{fill:#FFFFFF;stroke:#C7C6C6;stroke-width:1.5482;stroke-miterlimit:10;}
	.st2{fill:#020203;}
	.st3{font-family:'Roboto-Bold';}
	.st4{font-size:65.1307px;}
	.st5{fill:#FFFFFF;}
</style>
<rect class="st0" width="1800" height="1344"/>
<g>
	<g>
		<path class="st1" d="M1592.4,604.5H207.6c-11.9,0-21.5-9.6-21.5-21.5V418.5c0-11.9,9.6-21.5,21.5-21.5h1384.7
			c11.9,0,21.5,9.6,21.5,21.5V583C1613.9,594.9,1604.2,604.5,1592.4,604.5z"/>
		<g>
			<text transform="matrix(1 0 0 1 636.7104 522.7203)" class="st2 st3 st4">Sign in with Apple</text>
		</g>
		<g id="XMLID_1_">
			<g id="XMLID_9_">
				<path id="XMLID_11_" class="st2" d="M356.2,499.2c-0.1-11.9,9.8-17.8,10.2-18c-5.6-8.2-14.3-9.3-17.3-9.4
					c-7.3-0.8-14.4,4.4-18.1,4.4c-3.8,0-9.5-4.3-15.7-4.2c-7.9,0.1-15.4,4.7-19.4,11.8c-8.4,14.5-2.1,35.9,5.9,47.7
					c4,5.8,8.7,12.2,14.9,12c6-0.2,8.3-3.8,15.5-3.8c7.2,0,9.3,3.8,15.6,3.7c6.5-0.1,10.5-5.8,14.4-11.6c4.7-6.6,6.5-13.1,6.6-13.4
					C368.7,518.3,356.3,513.5,356.2,499.2z"/>
				<path id="XMLID_10_" class="st2" d="M344.3,464.1c3.2-4.1,5.5-9.6,4.8-15.2c-4.7,0.2-10.6,3.2-13.9,7.2c-3,3.5-5.7,9.2-5,14.6
					C335.5,471.1,340.9,468.1,344.3,464.1z"/>
			</g>
		</g>
	</g>
	<g>
		<path class="st2" d="M1476.6,947.1H323.4c-55.9,0-101.1-45.3-101.1-101.1v-5.3c0-55.9,45.3-101.1,101.1-101.1h1153.2
			c55.9,0,101.1,45.3,101.1,101.1v5.3C1577.8,901.8,1532.5,947.1,1476.6,947.1z"/>
		<g>
			<text transform="matrix(1 0 0 1 678.0796 865.2715)" class="st5 st3 st4">Sign in with Apple</text>
		</g>
		<g id="XMLID_2_">
			<g id="XMLID_3_">
				<path id="XMLID_5_" class="st5" d="M392.3,841.8c-0.1-11.9,9.8-17.8,10.2-18c-5.6-8.2-14.3-9.3-17.3-9.4
					c-7.3-0.8-14.4,4.4-18.1,4.4c-3.8,0-9.5-4.3-15.7-4.2c-7.9,0.1-15.4,4.7-19.4,11.8c-8.4,14.5-2.1,35.9,5.9,47.7
					c4,5.8,8.7,12.2,14.9,12c6-0.2,8.3-3.8,15.5-3.8c7.2,0,9.3,3.8,15.6,3.7c6.5-0.1,10.5-5.8,14.4-11.6c4.7-6.6,6.5-13.1,6.6-13.4
					C404.8,860.8,392.4,856.1,392.3,841.8z"/>
				<path id="XMLID_4_" class="st5" d="M380.4,806.6c3.2-4.1,5.5-9.6,4.8-15.2c-4.7,0.2-10.6,3.2-13.9,7.2c-3,3.5-5.7,9.2-5,14.6
					C371.7,813.7,377.1,810.6,380.4,806.6z"/>
			</g>
		</g>
	</g>
</g>
</svg>
